<?xml version="1.0" encoding="UTF-8"?>
<svg width="431px" height="354px" viewBox="0 0 431 354" version="1.1" xmlns="http://www.w3.org/2000/svg" xmlns:xlink="http://www.w3.org/1999/xlink">
    <!-- Generator: Sketch 44.1 (41455) - http://www.bohemiancoding.com/sketch -->
    <title>Group 3_text</title>
    <desc>Created with Sketch.</desc>
    <defs></defs>
    <g id="Page-1" stroke="none" stroke-width="1" fill="none" fill-rule="evenodd">
        <g id="Desktop-HD" transform="translate(-102.000000, -51.000000)" fill="#07A9D9">
            <g id="Group-3" transform="translate(99.000000, 51.000000)">
                <path d="M195.683097,1.40750255 L195.683097,0 C209.544774,0 226.260074,0.0339758972 245.8295,0.101928711 C265.398925,0.169881525 285.036006,0.203857422 304.74133,0.203857422 C327.980023,0.203857422 348.670303,0.169881525 366.812791,0.101928711 C384.95528,0.0339758972 399.122516,0 409.314925,0 L428.068864,38.9367676 C419.371342,49.1296896 402.690015,69.175469 378.024385,99.074707 C353.358755,128.973945 321.117251,167.842371 281.298906,215.681152 L281.502753,216.700439 C289.384883,216.700439 298.659836,216.768391 309.327891,216.904297 C319.995946,217.040203 330.90166,217.108154 342.045361,217.108154 C362.701977,217.108154 381.79547,217.006227 399.326414,216.802368 C416.857358,216.59851 428.272685,216.496582 433.572737,216.496582 L433.572737,272.353516 C410.741741,272.21761 388.216855,272.115682 365.997403,272.047729 C343.777951,271.979777 324.446638,271.945801 308.002885,271.945801 C283.541103,271.945801 262.239287,272.013753 244.096799,272.149658 C225.95431,272.285564 211.855023,272.353516 201.798512,272.353516 L184.063809,232.805176 C206.35121,207.526729 230.303013,179.224807 255.919934,147.89856 C281.536856,116.572312 306.371987,85.6882219 330.426073,55.2453613 L330.222225,54.6337891 C319.893917,54.4978834 310.041403,54.4299316 300.664387,54.4299316 L276.814268,54.4299316 C258.603831,54.4299316 241.820582,54.4978834 226.464019,54.6337891 C211.107456,54.7696947 200.847251,54.8376465 195.683097,54.8376465 L195.683097,10.9291006 C195.670164,10.9290697 195.657232,10.9290388 195.644301,10.929008 C195.63848,7.77361325 195.63557,4.59977897 195.63557,1.40750255 L195.683097,1.40750255 Z M196.194574,196.460427 C196.229599,185.842162 196.247111,174.16723 196.247111,161.435579 C191.626553,161.435579 181.841987,161.401603 166.89312,161.33365 C151.944253,161.265697 139.781494,161.231721 130.404477,161.231721 C120.076169,161.231721 108.355075,161.265697 95.2408416,161.33365 C82.1266085,161.401603 73.6670358,161.435579 69.8618697,161.435579 C69.8618697,189.97576 69.9298181,213.555033 70.0657169,232.174104 C70.2016157,250.793175 70.3375125,264.859197 70.4734112,274.37259 L3,274.37259 C3.13589879,264.587385 3.30576973,249.80787 3.50961791,230.033601 C3.71346609,210.259332 3.81538866,175.773797 3.81538866,126.57596 C3.81538866,111.082718 3.71346609,92.3280228 3.50961791,70.3113111 C3.30576973,48.2945995 3.13589879,25.326893 3,1.40750255 L70.4734112,1.40750255 C70.4734112,20.9779129 70.3714887,39.1889938 70.1676405,56.0412916 C69.9637923,72.8935894 69.8618697,89.4738273 69.8618697,105.782503 C73.6670358,105.782503 81.3452022,105.816478 92.8965993,105.884431 C104.447996,105.952384 117.018446,105.98636 130.608325,105.98636 C142.023823,105.98636 154.764143,105.952384 168.829668,105.884431 C182.895192,105.816478 192.034249,105.782503 196.247111,105.782503 C196.247111,93.0772362 196.17857,79.6638289 196.041485,65.5420068 C196.674009,65.5364911 197.315686,65.5308533 197.966518,65.5250934 C213.323081,65.3891878 230.10633,65.321236 248.316767,65.321236 L262.550457,65.321236 C262.531765,68.4570901 262.514092,71.6154062 262.49744,74.7961744 C262.417251,90.1129243 262.360721,103.773423 262.327849,115.777802 C250.858573,130.021382 239.223459,144.358706 227.422433,158.789864 C216.722668,171.87432 206.313399,184.431153 196.194574,196.460427 Z" id="Combined-Shape-Copy"></path>
                <text id="HODL.ZONE" font-family="Skia-Regular_Bold, Skia" font-size="80" font-weight="bold" letter-spacing="-5.5">
                    <tspan x="0.1275" y="352">HODL.ZON</tspan>
                    <tspan x="387.729062" y="352" letter-spacing="15.87">E</tspan>
                </text>
            </g>
        </g>
    </g>
</svg>